# xmcd CD database file
#
# Track frame offsets:
#	150
#	20380
#	43715
#
# Disc length: 851 seconds
#
# Revision: 2
# Processed by: cddbd v1.5PL3 Copyright (c) Steve Scherf et al.
# Submitted via: CDex 1.51
#
DISCID=1b035103
DTITLE=木村由姫 - Summer Rain
DYEAR=1998
DGENRE=JPop
TTITLE0=Summer Rain
TTITLE1=Summer Rain (Extended Mix)
TTITLE2=Summer Rain (Instrumental Mix)
EXTD=YEAR: 1998
EXTT0=
EXTT1=
EXTT2=
PLAYORDER=
